<svg width="185" height="39" viewBox="0 0 185 39" fill="none" xmlns="http://www.w3.org/2000/svg">
<path d="M56.2131 17.1158L53.2734 17.1536L55.1682 2.76367L62.5646 11.4694L69.9609 2.76367L71.8368 17.1347H68.8972L67.9088 9.39838L62.5646 15.5925L57.2014 9.39838L56.2131 17.1158Z" fill="black"/>
<path d="M76.0682 15.1887C74.5449 13.7913 73.7832 12.1295 73.7832 10.197C73.7832 8.26447 74.5449 6.62153 76.0682 5.2052C77.5538 3.85811 79.3604 3.18457 81.4629 3.18457C82.7911 3.18457 84.0437 3.48672 85.2146 4.07213C86.398 4.65755 87.3359 5.48846 88.0283 6.5334L85.6048 8.27076C84.755 6.87331 83.1814 6.07388 81.4629 6.07388C80.1725 6.07388 79.0583 6.48304 78.1518 7.27618C77.2517 8.06933 76.7858 9.04502 76.7858 10.197C76.7858 11.3489 77.2454 12.3057 78.1518 13.1178C79.0709 13.9172 80.1662 14.3201 81.4629 14.3201C83.1814 14.3201 84.774 13.4891 85.6426 12.0728L88.085 13.7535C87.3926 14.8299 86.4546 15.6671 85.2712 16.284C84.0878 16.9009 82.8289 17.2031 81.4692 17.2031C79.3793 17.2031 77.579 16.5295 76.0745 15.1824L76.0682 15.1887Z" fill="black"/>
<path d="M59.9461 37.5235C58.5109 37.5235 57.1135 37.2402 55.7539 36.6737C54.4068 36.0882 53.5569 35.3266 53.1855 34.3887L55.5398 32.9534C56.3392 34.0173 58.1584 34.6845 60.0154 34.6845C61.2743 34.6845 62.2815 34.5083 63.0243 34.1746C63.5342 33.9102 63.8048 33.5703 63.786 33.1297C63.786 32.6891 63.5405 32.368 63.0621 32.154C62.6215 31.9778 61.6458 31.8015 60.1224 31.6064C58.0703 31.3923 56.6917 31.1468 55.9993 30.8636C54.3564 30.1711 53.5569 29.0758 53.6451 27.5525C53.6451 25.9599 54.4382 24.7765 56.0497 23.9771C57.2017 23.4294 58.6494 23.165 60.4183 23.165C63.5531 23.165 65.6366 24.21 66.3983 26.2117L63.8175 27.5777C63.3076 26.3943 62.0801 25.8089 60.1917 25.8089C59.3419 25.8089 58.5298 25.9473 57.7682 26.218C57.0065 26.4824 56.6162 26.8727 56.5974 27.37C56.5785 28.289 57.252 28.61 58.8635 28.8744C59.216 28.9248 59.6755 28.9814 60.2232 29.0318L61.394 29.1577C62.7537 29.3151 63.7482 29.5291 64.3651 29.7746C66.008 30.4481 66.8075 31.5623 66.7193 33.136V33.3122C66.6816 34.2502 66.329 35.0622 65.6744 35.7169C65.0197 36.3715 64.1889 36.831 63.2132 37.1143C62.2375 37.3787 61.161 37.5235 59.9398 37.5235H59.9461Z" fill="black"/>
<path d="M76.2626 37.3472C74.1539 37.3472 72.3347 36.6736 70.8302 35.3139C69.3258 33.948 68.583 32.305 68.583 30.3411C68.583 28.3771 69.3447 26.7341 70.8491 25.3682C72.3536 24.0085 74.1602 23.335 76.2626 23.335C78.3651 23.335 80.1717 24.0274 81.6761 25.3871C83.1806 26.7467 83.9422 28.396 83.9422 30.3411C83.9422 32.2862 83.1806 33.948 81.6761 35.3139C80.1717 36.6736 78.3651 37.3472 76.2626 37.3472ZM80.9334 30.3411C80.9334 29.1891 80.4738 28.2197 79.5737 27.4203C78.6735 26.6208 77.5531 26.218 76.2626 26.218C74.9722 26.218 73.858 26.6271 72.9516 27.4203C72.0514 28.2134 71.5856 29.1891 71.5856 30.3411C71.5856 31.493 72.0451 32.4498 72.9516 33.2618C73.8706 34.0613 74.9659 34.4642 76.2626 34.4642C77.5593 34.4642 78.6546 34.055 79.5548 33.2618C80.4738 32.4498 80.9334 31.4741 80.9334 30.3411Z" fill="black"/>
<path d="M86.2461 37.278V23.4043H89.255V34.4265H98.0866V37.278H86.2461Z" fill="black"/>
<path d="M100.038 30.4482V23.4043H103.047V30.4482C103.047 31.5623 103.437 32.538 104.218 33.3312C104.998 34.1243 105.936 34.5335 107.032 34.5335C108.127 34.5335 109.065 34.1243 109.845 33.3312C110.626 32.5317 111.016 31.5623 111.016 30.4482V23.4043H114.006V30.4482C114.006 32.3744 113.314 34.0236 111.954 35.3833C110.594 36.7493 108.964 37.4165 107.032 37.4165C105.099 37.4165 103.456 36.743 102.096 35.3833C100.737 34.0236 100.044 32.3744 100.044 30.4482H100.038Z" fill="black"/>
<path d="M121.434 37.278V26.2558H115.945V23.4043H129.907V26.2558H124.437V37.278H121.428H121.434Z" fill="black"/>
<path d="M134.874 23.4043V37.278H131.865V23.4043H134.874Z" fill="black"/>
<path d="M144.85 37.3481C142.741 37.3481 140.922 36.6746 139.417 35.3149C137.913 33.949 137.17 32.306 137.17 30.342C137.17 28.3781 137.932 26.7351 139.436 25.3692C140.941 24.0095 142.747 23.3359 144.85 23.3359C146.952 23.3359 148.759 24.0284 150.263 25.388C151.768 26.7477 152.529 28.397 152.529 30.342C152.529 32.2871 151.768 33.949 150.263 35.3149C148.759 36.6746 146.952 37.3481 144.85 37.3481ZM149.52 30.342C149.52 29.1901 149.061 28.2207 148.161 27.4213C147.26 26.6218 146.14 26.219 144.85 26.219C143.559 26.219 142.445 26.6281 141.538 27.4213C140.638 28.2144 140.173 29.1901 140.173 30.342C140.173 31.494 140.632 32.4508 141.538 33.2628C142.458 34.0623 143.553 34.4651 144.85 34.4651C146.146 34.4651 147.242 34.056 148.142 33.2628C149.061 32.4508 149.52 31.4751 149.52 30.342Z" fill="black"/>
<path d="M157.842 37.2779H154.833V22.9258L165.824 31.8959V23.4042H168.814V37.8067L157.842 28.8681V37.2716V37.2779Z" fill="black"/>
<path d="M178.143 37.5235C176.708 37.5235 175.311 37.2402 173.951 36.6737C172.604 36.0882 171.754 35.3266 171.383 34.3887L173.737 32.9534C174.536 34.0173 176.356 34.6845 178.213 34.6845C179.472 34.6845 180.479 34.5083 181.221 34.1746C181.731 33.9102 182.002 33.5703 181.983 33.1297C181.983 32.6891 181.738 32.368 181.259 32.154C180.819 31.9778 179.843 31.8015 178.32 31.6064C176.267 31.3923 174.889 31.1468 174.197 30.8636C172.554 30.1711 171.754 29.0758 171.842 27.5525C171.842 25.9599 172.635 24.7765 174.247 23.9771C175.399 23.4294 176.847 23.165 178.616 23.165C181.75 23.165 183.834 24.21 184.596 26.2117L182.015 27.5777C181.505 26.3943 180.277 25.8089 178.389 25.8089C177.539 25.8089 176.727 25.9473 175.965 26.218C175.204 26.4824 174.813 26.8727 174.795 27.37C174.776 28.289 175.449 28.61 177.061 28.8744C177.413 28.9248 177.873 28.9814 178.42 29.0318L179.591 29.1577C180.951 29.3151 181.945 29.5291 182.562 29.7746C184.205 30.4481 185.005 31.5623 184.917 33.136V33.3122C184.879 34.2502 184.526 35.0622 183.872 35.7169C183.217 36.3715 182.386 36.831 181.41 37.1143C180.435 37.3787 179.358 37.5235 178.137 37.5235H178.143Z" fill="black"/>
<path d="M8.36121 19.3566C7.10855 18.0788 3.47643 20.5023 0.706726 17.5563C-3.81923 12.7345 14.6434 -4.05369 20.6046 0.906606C25.6341 5.08635 16.3745 12.9108 20.271 16.0078C24.8032 19.6147 37.4872 2.30405 43.4295 7.06921C50.4733 12.7156 24.2556 42.213 18.8547 37.9389C15.1596 35.0181 22.1216 29.9508 19.8114 28.4652C17.5012 26.9796 6.30278 40.9604 1.48097 37.1961C-3.34084 33.4318 10.0356 21.0688 8.36751 19.3692L8.36121 19.3566Z" fill="url(#paint0_linear_295_13)"/>
<path d="M136.026 17.1152L131.853 21.4272L134.509 21.8804L138.871 17.4489L136.026 17.1152Z" fill="#00AB84"/>
<defs>
<linearGradient id="paint0_linear_295_13" x1="12.0814" y1="41.1996" x2="26.7923" y2="0.7933" gradientUnits="userSpaceOnUse">
<stop stop-color="#60C0BD"/>
<stop offset="0.21" stop-color="#6ABC78"/>
<stop offset="0.56" stop-color="#00AA83"/>
</linearGradient>
</defs>
<script xmlns=""/><template xmlns="" id="transover-popup-template">
  <style>
    .pos_translation {
      padding-bottom: 3px;
    }

    strong {
      font-weight: bold;
    }

    .rtl {
      direction: rtl;
    }

    main {
      color: #333;
      max-width: 800px;
      font-family: Arial, sans-serif;
      font-size: 14px;
      font-weight: 300;
      letter-spacing: initial;

      background: #fcf7d9;
      text-align: left;
      border-style: solid;
      border-width: 1px;
      border-color: #ccc;
      box-shadow: rgba(0,0,0,0.2) 0px 2px 5px;
      border-radius: 5px;
      padding: 6px 8px 3px 8px;
      position: fixed;
      z-index: 2147483647;
      top: -1500px;
      left: 0;
      box-sizing: content-box;
      -webkit-font-smoothing: antialiased;
      font-smoothing: antialiased;
      text-rendering: optimizeLegibility;

      /* To fix the following issue:
      1. Have translate on hover enabled (opposed to translate on click).
      2. Wisit a website that has a dropdown menu that opens on hover.
      3. Open the menu.
      4. Hover over a word within that menu.
      5. Incidentally move the cursor over the TransOver popup.
      The hover menu gets closed.
      */
      pointer-events: none;
    }

    .pos_translation {
      font-size: 1em;
      line-height: 1.3em;
    }

    .red {
      color: red;
    }

    .from_lang {
      color: grey;
      font-size: 0.8em;
      line-height: 1.2em;
      margin-top: 2px;
      margin-bottom: 3px;
    }
  </style>

  <main translate="no"/>
</template></svg>