<?xml version="1.0" encoding="utf-8"?>
<!-- Generator: Adobe Illustrator 24.0.0, SVG Export Plug-In . SVG Version: 6.00 Build 0)  -->
<svg version="1.1" id="Layer_1" xmlns="http://www.w3.org/2000/svg" xmlns:xlink="http://www.w3.org/1999/xlink" x="0px" y="0px"
	 viewBox="0 0 198.2 167.5" style="enable-background:new 0 0 198.2 167.5;" xml:space="preserve">
<style type="text/css">
	.st0{fill:url(#SVGID_1_);}
	.st1{fill:url(#SVGID_2_);}
	.st2{fill:url(#SVGID_3_);}
	.st3{fill:url(#SVGID_4_);}
	.st4{fill:url(#SVGID_5_);}
	.st5{fill:none;}
	.st6{fill:#FFFFFF;}
</style>
<linearGradient id="SVGID_1_" gradientUnits="userSpaceOnUse" x1="557.2433" y1="97.6468" x2="594.8698" y2="159.1129" gradientTransform="matrix(-1 0 0 -1 645 170)">
	<stop  offset="0" style="stop-color:#195EAC"/>
	<stop  offset="0.2118" style="stop-color:#1B62AF"/>
	<stop  offset="0.4236" style="stop-color:#206EB8"/>
	<stop  offset="0.4966" style="stop-color:#2274BD"/>
	<stop  offset="0.5966" style="stop-color:#2170BA"/>
	<stop  offset="0.888" style="stop-color:#1F67B3"/>
</linearGradient>
<path class="st0" d="M68.5,4.7l35.4,82.4c0.3,0.7-0.2,1.6-1,1.6H76.2c-0.4,0-0.8-0.3-1-0.7L39.8,5.6C39.5,4.8,40,4,40.8,4h26.6
	C67.9,4,68.3,4.3,68.5,4.7z"/>
<linearGradient id="SVGID_2_" gradientUnits="userSpaceOnUse" x1="486.7696" y1="97.6462" x2="524.396" y2="159.1123" gradientTransform="matrix(-1 0 0 -1 645 170)">
	<stop  offset="0" style="stop-color:#195EAC"/>
	<stop  offset="0.2118" style="stop-color:#1B62AF"/>
	<stop  offset="0.4236" style="stop-color:#206EB8"/>
	<stop  offset="0.4966" style="stop-color:#2274BD"/>
	<stop  offset="0.5966" style="stop-color:#2170BA"/>
	<stop  offset="0.888" style="stop-color:#1F67B3"/>
</linearGradient>
<path class="st1" d="M139,4.7l35.4,82.4c0.3,0.7-0.2,1.6-1,1.6h-26.6c-0.4,0-0.8-0.3-1-0.7L110.3,5.6c-0.3-0.7,0.2-1.5,1-1.5h26.6
	C138.4,4,138.8,4.3,139,4.7z"/>
<linearGradient id="SVGID_3_" gradientUnits="userSpaceOnUse" x1="20.1056" y1="97.6454" x2="52.9145" y2="151.2417" gradientTransform="matrix(1 0 0 -1 0 170)">
	<stop  offset="0" style="stop-color:#1857A6"/>
	<stop  offset="0.888" style="stop-color:#3EA5E8"/>
</linearGradient>
<path class="st2" d="M39.4,4.7L4,87.1c-0.3,0.7,0.2,1.6,1,1.6h26.6c0.4,0,0.8-0.3,1-0.7L68,5.6C68.3,4.8,67.8,4,67,4H40.4
	C39.9,4,39.5,4.3,39.4,4.7z"/>
<linearGradient id="SVGID_4_" gradientUnits="userSpaceOnUse" x1="153" y1="170" x2="153" y2="170" gradientTransform="matrix(1 0 0 -1 0 170)">
	<stop  offset="0" style="stop-color:#1857A6"/>
	<stop  offset="0.888" style="stop-color:#3EA5E8"/>
</linearGradient>
<path class="st3" d="M153,0"/>
<linearGradient id="SVGID_5_" gradientUnits="userSpaceOnUse" x1="99.8519" y1="111.4552" x2="130.1307" y2="173.5525" gradientTransform="matrix(1 0 0 -1 0 170)">
	<stop  offset="0.1729" style="stop-color:#1F67B3"/>
	<stop  offset="0.641" style="stop-color:#389FE2"/>
</linearGradient>
<path class="st4" d="M110,4.6L93.9,43.2c-0.1,0.2-0.1,0.5,0,0.7l13,29.8c0.3,0.7,1.4,0.7,1.7,0l30.6-68.4c0.3-0.6-0.2-1.3-0.8-1.3
	h-27.5C110.5,4,110.2,4.2,110,4.6z"/>
<path d="M6.4,106.4h4.7c0.2,0,0.4,0.2,0.4,0.4v40.9c0,0.2-0.2,0.4-0.4,0.4H6.4c-0.2,0-0.4-0.2-0.4-0.4v-40.9
	C6,106.6,6.2,106.4,6.4,106.4z"/>
<path d="M27.5,106.4h4.7c0.2,0,0.4,0.2,0.4,0.4v40.9c0,0.2-0.2,0.4-0.4,0.4h-4.7c-0.2,0-0.4-0.2-0.4-0.4v-40.9
	C27.1,106.6,27.3,106.4,27.5,106.4z"/>
<path d="M44.4,106.4H49c0.2,0,0.4,0.2,0.4,0.4v40.8c0,0.2-0.2,0.4-0.4,0.4h-4.6c-0.2,0-0.4-0.2-0.4-0.4v-40.8
	C44,106.6,44.2,106.4,44.4,106.4z"/>
<path d="M6.2,107L18,140.5c0.1,0.2,0.2,0.3,0.4,0.3h2.5c0.2,0,0.3-0.1,0.4-0.3L32.4,107c0.1-0.3-0.1-0.5-0.4-0.5h-4.6
	c-0.2,0-0.3,0.1-0.4,0.3l-7.1,21.2c-0.1,0.4-0.6,0.4-0.8,0l-7.5-21.2c-0.1-0.2-0.2-0.3-0.4-0.3H6.6C6.3,106.4,6.1,106.7,6.2,107z"/>
<path d="M61,130.2v17.3c0,0.3,0.3,0.6,0.6,0.6h4.7c0.1,0,0.2-0.1,0.2-0.2v-17.3c-2.4-0.1-4.7-0.2-5.3-0.2
	C61.1,130.4,61,130.3,61,130.2z"/>
<polygon points="66.6,106.4 61,106.4 61,106.6 66.6,106.5 "/>
<path d="M70.1,129.1l5.1-1.2c0.1,0,0.2,0,0.2,0.1l0.6,1.7c2.8-1.5,5.1-4.7,5.4-10.2c0.3-7.6-2.9-10.9-7.3-12.6
	c-0.9-0.3-1.9-0.5-2.9-0.5l-4.5,0.1v24.1c1.3,0,2.6,0.1,3.8,0.1l-0.4-1.3C69.9,129.3,69.9,129.1,70.1,129.1z M66.9,112l4.2-0.1
	c0.4,0,0.8,0.1,1.2,0.3c1.8,0.9,3.2,2.8,3.1,6.9c-0.1,3.5-1.4,5.3-2.8,5.9c-0.7,0.3-5.7,0-5.7,0L66.9,112L66.9,112z"/>
<path d="M61,106.6v23.7c0,0.1,0.1,0.2,0.2,0.2c0.7,0,2.9,0.1,5.3,0.2v-24.1L61,106.6z"/>
<path d="M82,147.9l-6-18.1c-0.4,0.3-0.9,0.5-1.4,0.6c-0.6,0.2-2.3,0.3-4.3,0.3l5.6,17.3c0,0.1,0.1,0.1,0.2,0.1h5.7
	C81.9,148.1,82.1,148,82,147.9z"/>
<path d="M76,129.8l-0.6-1.7c0-0.1-0.1-0.2-0.2-0.1l-5.1,1.2c-0.1,0-0.2,0.1-0.2,0.3l0.4,1.3c2,0,3.7-0.1,4.3-0.3
	C75.1,130.2,75.5,130,76,129.8z"/>
<path class="st5" d="M101.7,132.7l-0.1,0.3h0.3C101.8,133,101.6,132.9,101.7,132.7z"/>
<path class="st5" d="M104.9,119.4l2.8,13.2c0,0.2-0.1,0.3-0.3,0.3h0.7l-3.3-15.8l-0.5,2.2C104.5,119.1,104.9,119.1,104.9,119.4z"/>
<path d="M99.5,138.1l1-4.9c0-0.1,0.1-0.2,0.3-0.2h0.8l0.1-0.3l0,0l2.8-13.2l0,0l0.5-2.2l-2.4-11.5c0-0.2,0.1-0.3,0.3-0.3h-0.1
	c-0.1,0-0.2,0.1-0.3,0.2L93,146.9c0,0.2,0.1,0.3,0.3,0.3h5.2c0.1,0,0.2-0.1,0.3-0.2l1.8-8.6h-0.7C99.6,138.5,99.5,138.3,99.5,138.1z
	"/>
<path d="M116.8,146.9l-9.5-41.3c0-0.1-0.1-0.2-0.3-0.2H107c0.2,0,0.3,0.2,0.3,0.3l-2.4,11.5l3.3,15.8h0.4c0.1,0,0.2,0.1,0.3,0.2
	l1.2,4.9c0,0.2-0.1,0.3-0.3,0.3h-0.5l1.8,8.6c0,0.1,0.1,0.2,0.3,0.2h5.2C116.7,147.3,116.8,147.1,116.8,146.9z"/>
<path d="M102.5,105.8l2.4,11.5l2.4-11.5c0-0.2-0.1-0.3-0.3-0.3h-4.2C102.6,105.4,102.4,105.6,102.5,105.8z"/>
<polygon class="st6" points="104.4,119.4 101.7,132.7 101.7,132.7 "/>
<polygon points="107.4,133 101.9,133 101.6,133 100.5,138.5 100.7,138.5 108.7,138.5 109.3,138.5 108.1,133 "/>
<path d="M100.8,133c-0.1,0-0.2,0.1-0.3,0.2l-1,4.9c0,0.2,0.1,0.3,0.3,0.3h0.7l1.1-5.5H100.8z"/>
<path d="M110,138.1l-1.2-4.9c0-0.1-0.1-0.2-0.3-0.2h-0.4l1.1,5.5h0.5C109.9,138.5,110.1,138.3,110,138.1z"/>
<path d="M127.9,105.5c0.9,0,2.7,0,4.5,0c0,0,0,0,0,0L127.9,105.5c-0.3,0-0.5,0.2-0.5,0.5v0.1C127.3,105.8,127.6,105.6,127.9,105.5z"
	/>
<path d="M132.3,147.2C132.3,147.2,132.4,147.2,132.3,147.2c-0.1,0-0.2,0-0.4,0H132.3z"/>
<path d="M127.3,146.6L127.3,146.6c0,0.3,0.2,0.6,0.5,0.6h0.5c-0.2,0-0.4,0-0.5,0C127.6,147.1,127.3,146.9,127.3,146.6z"/>
<path d="M131.9,147.2h-3.6C129.2,147.2,130.5,147.2,131.9,147.2z"/>
<path d="M142.9,125c-0.8,0.5-1.6,0.7-1.9,0.8c-0.6,0.2-4.6,0.3-8.2,0.3v20.5c0,0.3-0.2,0.5-0.5,0.5c3.6-0.1,7.9-0.2,8.8-0.6
	c3.3-1.2,6.1-3.9,6.4-10.3C147.9,130.3,145.9,127,142.9,125z M141.8,135.8c-0.1,3.5-1.4,5.3-2.8,5.9c-0.6,0.3-3.9,0.1-5.2,0
	c-0.3,0-0.5-0.3-0.5-0.5v-12.1c0-0.3,0.2-0.5,0.5-0.5l3.7-0.1c0.4,0,0.8,0.1,1.2,0.3C140.5,129.8,141.9,131.7,141.8,135.8z"/>
<path d="M132.9,146.6v-20.5c-2.1,0-4.1,0-5,0c-0.3,0-0.5-0.2-0.5-0.5v21c0,0.3,0.2,0.5,0.5,0.5c0.1,0,0.3,0,0.5,0h3.6
	c0.1,0,0.3,0,0.4,0C132.6,147.1,132.9,146.9,132.9,146.6z"/>
<path d="M132.9,106v17.2l4.4-0.1c1.1,0,2.1,0.2,3.1,0.6c0.9,0.3,1.7,0.8,2.5,1.3c2-1.2,4.6-3.8,3.9-10.4c-1-9-8-8.9-8.5-8.9
	c0,0,0,0-0.1,0l-1.5-0.1c-0.7-0.1-2.5-0.1-4.4-0.1C132.6,105.5,132.9,105.8,132.9,106z M133.1,110.7c0-0.3,0.2-0.5,0.5-0.5
	c0.5,0,1.4,0,3,0c2.6,0.1,5,2.1,4.5,6.5s-2.3,4.7-3,4.9c-0.5,0.2-3.4,0.2-4.6,0.2c-0.3,0-0.5-0.2-0.5-0.5L133.1,110.7L133.1,110.7z"
	/>
<path d="M127.9,123.3l5-0.1V106c0-0.3-0.2-0.5-0.5-0.5c-1.8,0-3.6,0-4.5,0c-0.3,0-0.5,0.2-0.5,0.5v17.7
	C127.3,123.5,127.6,123.3,127.9,123.3z"/>
<path d="M137.3,123.2l-4.4,0.1v2.9c3.6,0,7.6-0.1,8.2-0.3c0.3-0.1,1-0.3,1.9-0.8c-0.8-0.5-1.6-0.9-2.5-1.3
	C139.4,123.3,138.3,123.2,137.3,123.2z"/>
<path d="M127.9,126.2c0.9,0,2.8,0,5,0v-2.9l-5,0.1c-0.3,0-0.5,0.2-0.5,0.5v1.8C127.3,125.9,127.6,126.2,127.9,126.2z"/>
<path d="M178.3,113.6c0,0-0.8-8.7-10.1-8.7s-10,8.9-10,8.9v25.3c0,0,1,8.7,10.2,8.7s9.9-8.3,9.9-8.3L178.3,113.6z M172.4,138.7
	c-0.3,1.4-1.1,3.4-4.3,3.4c-3.1,0-4-3.1-4-3.1v-23.8c0,0-0.3-4.5,4.2-4.5c4.4,0,4.1,3.8,4.1,3.8S172.6,137.3,172.4,138.7z"/>
</svg>
