<?xml version="1.0" encoding="UTF-8" standalone="no"?>
<!DOCTYPE svg PUBLIC "-//W3C//DTD SVG 1.1//EN" "http://www.w3.org/Graphics/SVG/1.1/DTD/svg11.dtd">
<svg width="100%" height="100%" viewBox="0 0 405 332" version="1.1" xmlns="http://www.w3.org/2000/svg" xmlns:xlink="http://www.w3.org/1999/xlink" xml:space="preserve" xmlns:serif="http://www.serif.com/" style="fill-rule:evenodd;clip-rule:evenodd;stroke-linejoin:round;stroke-miterlimit:2;">
    <g transform="matrix(1,0,0,1,-723.154,-274)">
        <g>
            <g transform="matrix(248.769,0,0,-248.769,723.155,419.693)">
                <path d="M0.305,0.51L0.035,0.118C-0.012,0.049 -0.012,-0.046 0.035,-0.115L0.305,-0.508C0.336,-0.552 0.383,-0.581 0.434,-0.583C0.437,-0.583 0.439,-0.583 0.442,-0.583L0.558,-0.586L0.627,-0.417L0.521,-0.417C0.488,-0.417 0.457,-0.4 0.436,-0.371L0.229,-0.072C0.199,-0.029 0.199,0.031 0.229,0.075L0.436,0.373C0.457,0.403 0.488,0.42 0.521,0.42L0.977,0.42L1.046,0.581L0.877,0.581L0.442,0.586C0.388,0.586 0.338,0.558 0.305,0.51Z" style="fill:url(#_Linear1);fill-rule:nonzero;"/>
            </g>
            <g transform="matrix(270.835,5.2134,5.2134,-270.835,791.254,415.487)">
                <path d="M0.158,-0.548L0.272,-0.548L0.699,0.532L0.544,0.529L0.158,-0.548Z" style="fill:url(#_Linear2);fill-rule:nonzero;"/>
            </g>
            <g transform="matrix(-248.769,0,0,248.769,1127.4,459.693)">
                <path d="M0.627,-0.417L0.521,-0.417C0.488,-0.417 0.457,-0.4 0.436,-0.371L0.229,-0.072C0.199,-0.029 0.199,0.031 0.229,0.075L0.436,0.373C0.457,0.403 0.488,0.42 0.521,0.42L0.977,0.42L1.046,0.581L0.877,0.581L0.442,0.586C0.388,0.586 0.338,0.558 0.305,0.51L0.035,0.118C-0.012,0.049 -0.012,-0.046 0.035,-0.115L0.305,-0.508C0.336,-0.552 0.383,-0.581 0.434,-0.583C0.437,-0.583 0.439,-0.583 0.442,-0.583L0.558,-0.586L0.627,-0.417Z" style="fill:url(#_Linear3);fill-rule:nonzero;"/>
            </g>
            <g transform="matrix(270.885,0.103177,0.103177,-270.885,835.319,461.7)">
                <path d="M0.118,-0.526L0.273,-0.526L0.68,0.543L0.565,0.545L0.118,-0.526Z" style="fill:url(#_Linear4);fill-rule:nonzero;"/>
            </g>
        </g>
    </g>
    <defs>
        <linearGradient id="_Linear1" x1="0" y1="0" x2="1" y2="0" gradientUnits="userSpaceOnUse" gradientTransform="matrix(1,0,0,-1,0,5.45887e-07)"><stop offset="0" style="stop-color:rgb(0,80,255);stop-opacity:1"/><stop offset="0.76" style="stop-color:rgb(0,255,255);stop-opacity:1"/><stop offset="1" style="stop-color:rgb(0,255,255);stop-opacity:1"/></linearGradient>
        <linearGradient id="_Linear2" x1="0" y1="0" x2="1" y2="0" gradientUnits="userSpaceOnUse" gradientTransform="matrix(0.48324,0.875488,0.875488,-0.48324,0.213665,-0.361989)"><stop offset="0" style="stop-color:rgb(0,255,255);stop-opacity:1"/><stop offset="1" style="stop-color:rgb(0,80,255);stop-opacity:1"/></linearGradient>
        <linearGradient id="_Linear3" x1="0" y1="0" x2="1" y2="0" gradientUnits="userSpaceOnUse" gradientTransform="matrix(1,0,0,-1,0,-5.45887e-07)"><stop offset="0" style="stop-color:rgb(0,80,255);stop-opacity:1"/><stop offset="0.76" style="stop-color:rgb(0,255,255);stop-opacity:1"/><stop offset="1" style="stop-color:rgb(0,255,255);stop-opacity:1"/></linearGradient>
        <linearGradient id="_Linear4" x1="0" y1="0" x2="1" y2="0" gradientUnits="userSpaceOnUse" gradientTransform="matrix(-0.49967,-0.866216,-0.866216,0.49967,0.620071,0.358156)"><stop offset="0" style="stop-color:rgb(0,237,255);stop-opacity:1"/><stop offset="1" style="stop-color:rgb(0,80,255);stop-opacity:1"/></linearGradient>
    </defs>
</svg>
